<?xml version="1.0" encoding="UTF-8"?>
<svg xmlns="http://www.w3.org/2000/svg" xmlns:xlink="http://www.w3.org/1999/xlink" width="1080" height="1920" viewBox="0 0 1080 1920">
<defs>
<g>
<g id="glyph-0-0">
<path d="M 2.492188 -7.617188 L 2.492188 -4.941406 C 2.816406 -5.074219 3.121094 -5.175781 3.417969 -5.242188 C 3.714844 -5.3125 3.992188 -5.34375 4.257812 -5.34375 C 4.945312 -5.34375 5.515625 -5.105469 5.980469 -4.621094 C 6.441406 -4.140625 6.671875 -3.507812 6.671875 -2.722656 C 6.671875 -1.851562 6.414062 -1.148438 5.890625 -0.613281 C 5.371094 -0.0742188 4.71875 0.195312 3.9375 0.195312 C 3.421875 0.195312 2.925781 0.0820312 2.449219 -0.148438 C 2.109375 -0.308594 1.800781 -0.511719 1.523438 -0.75 C 1.359375 -0.890625 1.277344 -1.011719 1.277344 -1.105469 C 1.277344 -1.183594 1.300781 -1.25 1.355469 -1.304688 C 1.40625 -1.359375 1.46875 -1.386719 1.535156 -1.386719 C 1.609375 -1.386719 1.6875 -1.347656 1.769531 -1.269531 C 2.425781 -0.65625 3.140625 -0.351562 3.914062 -0.351562 C 4.550781 -0.351562 5.078125 -0.570312 5.496094 -1.007812 C 5.910156 -1.441406 6.121094 -2.023438 6.121094 -2.746094 C 6.121094 -3.363281 5.941406 -3.859375 5.578125 -4.234375 C 5.21875 -4.609375 4.761719 -4.796875 4.207031 -4.796875 C 3.636719 -4.796875 3.070312 -4.648438 2.5 -4.347656 C 2.359375 -4.28125 2.261719 -4.246094 2.207031 -4.246094 C 2.128906 -4.246094 2.066406 -4.269531 2.019531 -4.324219 C 1.96875 -4.375 1.945312 -4.449219 1.945312 -4.542969 L 1.945312 -8.171875 L 5.761719 -8.171875 C 5.890625 -8.171875 5.984375 -8.144531 6.042969 -8.09375 C 6.097656 -8.039062 6.125 -7.972656 6.125 -7.890625 C 6.125 -7.8125 6.097656 -7.746094 6.042969 -7.695312 C 5.984375 -7.644531 5.890625 -7.617188 5.761719 -7.617188 Z "/>
</g>
</g>
</defs>
<g fill="rgb(78.039216%, 55.294118%, 27.45098%)" fill-opacity="1">
<use xlink:href="#glyph-0-0" x="30" y="31.099609"/>
</g>
</svg>
