<?xml version="1.0" encoding="UTF-8"?>
<svg xmlns="http://www.w3.org/2000/svg" xmlns:xlink="http://www.w3.org/1999/xlink" width="1280" height="720" viewBox="0 0 1280 720">
<defs>
<g>
<g id="glyph-0-0">
<path d="M 5.292969 0.253906 C 4.617188 0.253906 3.980469 0.144531 3.390625 -0.0742188 C 2.800781 -0.292969 2.289062 -0.613281 1.847656 -1.03125 C 1.417969 -1.4375 1.082031 -1.945312 0.832031 -2.546875 C 0.585938 -3.148438 0.460938 -3.808594 0.460938 -4.53125 C 0.460938 -5.25 0.585938 -5.910156 0.835938 -6.523438 C 1.085938 -7.132812 1.4375 -7.664062 1.886719 -8.109375 C 2.332031 -8.550781 2.863281 -8.890625 3.484375 -9.128906 C 4.105469 -9.371094 4.769531 -9.492188 5.476562 -9.492188 C 5.988281 -9.492188 6.453125 -9.429688 6.875 -9.304688 C 7.296875 -9.175781 7.652344 -9.035156 7.941406 -8.878906 L 8.347656 -9.238281 L 8.914062 -9.238281 L 8.972656 -5.867188 L 8.398438 -5.867188 C 8.074219 -6.898438 7.683594 -7.652344 7.226562 -8.136719 C 6.773438 -8.621094 6.21875 -8.859375 5.5625 -8.859375 C 4.75 -8.859375 4.128906 -8.5 3.703125 -7.78125 C 3.277344 -7.0625 3.066406 -6.050781 3.066406 -4.753906 C 3.066406 -4.019531 3.140625 -3.390625 3.285156 -2.871094 C 3.429688 -2.351562 3.621094 -1.933594 3.851562 -1.617188 C 4.105469 -1.285156 4.402344 -1.042969 4.746094 -0.890625 C 5.085938 -0.734375 5.464844 -0.65625 5.882812 -0.65625 C 6.488281 -0.65625 7.03125 -0.824219 7.503906 -1.152344 C 7.980469 -1.480469 8.410156 -1.980469 8.800781 -2.648438 L 9.363281 -2.3125 C 9.175781 -1.929688 8.960938 -1.585938 8.722656 -1.285156 C 8.484375 -0.984375 8.210938 -0.726562 7.898438 -0.507812 C 7.554688 -0.269531 7.175781 -0.0820312 6.761719 0.0507812 C 6.347656 0.1875 5.855469 0.253906 5.292969 0.253906 Z "/>
</g>
<g id="glyph-0-1">
<path d="M 9.160156 0 L 5.226562 0 L 5.226562 -0.476562 C 5.300781 -0.488281 5.394531 -0.503906 5.5 -0.523438 C 5.609375 -0.542969 5.707031 -0.578125 5.792969 -0.632812 C 5.898438 -0.691406 5.972656 -0.765625 6.011719 -0.855469 C 6.054688 -0.945312 6.074219 -1.074219 6.074219 -1.242188 L 6.074219 -4.308594 L 3.46875 -1.230469 L 3.46875 -1.210938 C 3.46875 -1.054688 3.492188 -0.929688 3.53125 -0.835938 C 3.574219 -0.742188 3.644531 -0.667969 3.75 -0.613281 C 3.820312 -0.574219 3.90625 -0.542969 4.015625 -0.523438 C 4.121094 -0.503906 4.226562 -0.488281 4.335938 -0.476562 L 4.335938 0 L 0.402344 0 L 0.402344 -0.476562 C 0.511719 -0.484375 0.621094 -0.496094 0.730469 -0.511719 C 0.84375 -0.527344 0.9375 -0.546875 1.015625 -0.574219 C 1.15625 -0.621094 1.25 -0.695312 1.300781 -0.792969 C 1.355469 -0.894531 1.378906 -1.023438 1.378906 -1.183594 L 1.378906 -5.273438 C 1.378906 -5.425781 1.351562 -5.554688 1.296875 -5.660156 C 1.246094 -5.765625 1.148438 -5.84375 1.015625 -5.886719 C 0.902344 -5.921875 0.796875 -5.941406 0.703125 -5.953125 C 0.609375 -5.964844 0.507812 -5.972656 0.402344 -5.984375 L 0.402344 -6.457031 L 4.335938 -6.457031 L 4.335938 -5.984375 C 4.230469 -5.96875 4.136719 -5.953125 4.046875 -5.933594 C 3.957031 -5.914062 3.863281 -5.878906 3.769531 -5.828125 C 3.664062 -5.769531 3.59375 -5.691406 3.550781 -5.585938 C 3.511719 -5.480469 3.488281 -5.359375 3.488281 -5.214844 L 3.488281 -2.148438 L 6.09375 -5.226562 L 6.09375 -5.246094 C 6.09375 -5.402344 6.074219 -5.527344 6.03125 -5.621094 C 5.992188 -5.714844 5.917969 -5.789062 5.8125 -5.847656 C 5.730469 -5.894531 5.632812 -5.925781 5.515625 -5.941406 C 5.402344 -5.957031 5.304688 -5.96875 5.226562 -5.984375 L 5.226562 -6.457031 L 9.160156 -6.457031 L 9.160156 -5.984375 C 9.03125 -5.972656 8.921875 -5.964844 8.835938 -5.949219 C 8.746094 -5.9375 8.652344 -5.914062 8.546875 -5.886719 C 8.421875 -5.847656 8.328125 -5.777344 8.273438 -5.671875 C 8.210938 -5.570312 8.183594 -5.4375 8.183594 -5.273438 L 8.183594 -1.183594 C 8.183594 -1.027344 8.210938 -0.898438 8.265625 -0.789062 C 8.320312 -0.683594 8.414062 -0.613281 8.546875 -0.574219 C 8.652344 -0.542969 8.746094 -0.519531 8.824219 -0.507812 C 8.90625 -0.496094 9.015625 -0.484375 9.160156 -0.476562 Z "/>
</g>
<g id="glyph-0-2">
<path d="M 9.0625 0 L 5.105469 0 L 5.105469 -0.476562 C 5.179688 -0.488281 5.269531 -0.503906 5.378906 -0.523438 C 5.484375 -0.542969 5.582031 -0.578125 5.671875 -0.632812 C 5.773438 -0.691406 5.847656 -0.765625 5.886719 -0.855469 C 5.929688 -0.945312 5.949219 -1.074219 5.949219 -1.242188 L 5.949219 -3.113281 L 3.515625 -3.113281 L 3.515625 -1.242188 C 3.515625 -1.089844 3.539062 -0.964844 3.582031 -0.867188 C 3.625 -0.765625 3.695312 -0.6875 3.796875 -0.632812 C 3.863281 -0.59375 3.949219 -0.558594 4.054688 -0.535156 C 4.15625 -0.507812 4.257812 -0.488281 4.363281 -0.476562 L 4.363281 0 L 0.402344 0 L 0.402344 -0.476562 C 0.511719 -0.484375 0.621094 -0.496094 0.730469 -0.511719 C 0.84375 -0.527344 0.9375 -0.546875 1.015625 -0.574219 C 1.15625 -0.621094 1.25 -0.695312 1.300781 -0.792969 C 1.355469 -0.894531 1.378906 -1.023438 1.378906 -1.183594 L 1.378906 -5.273438 C 1.378906 -5.425781 1.351562 -5.554688 1.296875 -5.660156 C 1.246094 -5.765625 1.148438 -5.84375 1.015625 -5.886719 C 0.902344 -5.921875 0.796875 -5.941406 0.703125 -5.953125 C 0.609375 -5.964844 0.507812 -5.972656 0.402344 -5.984375 L 0.402344 -6.457031 L 4.363281 -6.457031 L 4.363281 -5.984375 C 4.257812 -5.96875 4.160156 -5.953125 4.070312 -5.933594 C 3.984375 -5.914062 3.890625 -5.878906 3.796875 -5.828125 C 3.691406 -5.769531 3.617188 -5.691406 3.578125 -5.585938 C 3.535156 -5.480469 3.515625 -5.359375 3.515625 -5.214844 L 3.515625 -3.71875 L 5.949219 -3.71875 L 5.949219 -5.214844 C 5.949219 -5.359375 5.929688 -5.480469 5.890625 -5.582031 C 5.851562 -5.683594 5.777344 -5.765625 5.671875 -5.828125 C 5.589844 -5.875 5.492188 -5.910156 5.386719 -5.929688 C 5.28125 -5.953125 5.1875 -5.96875 5.105469 -5.984375 L 5.105469 -6.457031 L 9.0625 -6.457031 L 9.0625 -5.984375 C 8.933594 -5.972656 8.824219 -5.964844 8.738281 -5.949219 C 8.648438 -5.9375 8.554688 -5.914062 8.449219 -5.886719 C 8.324219 -5.847656 8.234375 -5.777344 8.171875 -5.671875 C 8.117188 -5.570312 8.085938 -5.4375 8.085938 -5.273438 L 8.085938 -1.183594 C 8.085938 -1.027344 8.113281 -0.898438 8.167969 -0.789062 C 8.222656 -0.683594 8.316406 -0.613281 8.449219 -0.574219 C 8.554688 -0.542969 8.648438 -0.519531 8.726562 -0.507812 C 8.808594 -0.496094 8.917969 -0.484375 9.0625 -0.476562 Z "/>
</g>
<g id="glyph-0-3">
<path d="M 7.734375 -5.984375 C 7.539062 -5.953125 7.347656 -5.878906 7.164062 -5.761719 C 6.980469 -5.644531 6.828125 -5.460938 6.707031 -5.214844 C 6.332031 -4.425781 5.949219 -3.582031 5.554688 -2.691406 C 5.160156 -1.800781 4.71875 -0.835938 4.238281 0.203125 C 3.96875 0.785156 3.707031 1.246094 3.457031 1.59375 C 3.207031 1.941406 2.96875 2.210938 2.746094 2.394531 C 2.539062 2.570312 2.332031 2.695312 2.128906 2.773438 C 1.925781 2.851562 1.71875 2.890625 1.511719 2.890625 C 1.097656 2.890625 0.765625 2.777344 0.511719 2.546875 C 0.257812 2.316406 0.128906 2.058594 0.128906 1.769531 C 0.128906 1.648438 0.144531 1.535156 0.171875 1.433594 C 0.199219 1.328125 0.261719 1.21875 0.351562 1.105469 C 0.421875 1.011719 0.527344 0.929688 0.671875 0.863281 C 0.820312 0.796875 0.984375 0.761719 1.164062 0.761719 C 1.40625 0.761719 1.640625 0.847656 1.859375 1.015625 C 2.082031 1.183594 2.3125 1.417969 2.550781 1.71875 C 2.695312 1.574219 2.871094 1.359375 3.082031 1.074219 C 3.292969 0.789062 3.445312 0.496094 3.546875 0.199219 C 3.03125 -0.886719 2.574219 -1.828125 2.171875 -2.621094 C 1.773438 -3.417969 1.328125 -4.304688 0.832031 -5.285156 C 0.726562 -5.496094 0.578125 -5.65625 0.398438 -5.769531 C 0.214844 -5.886719 0.0234375 -5.957031 -0.183594 -5.984375 L -0.183594 -6.457031 L 3.800781 -6.457031 L 3.800781 -5.984375 C 3.65625 -5.980469 3.484375 -5.945312 3.292969 -5.886719 C 3.101562 -5.824219 3.003906 -5.746094 3.003906 -5.652344 C 3.003906 -5.617188 3.011719 -5.578125 3.023438 -5.535156 C 3.035156 -5.496094 3.058594 -5.4375 3.09375 -5.359375 C 3.242188 -5.054688 3.449219 -4.632812 3.722656 -4.09375 C 3.992188 -3.554688 4.308594 -2.925781 4.667969 -2.203125 C 4.9375 -2.816406 5.164062 -3.347656 5.355469 -3.789062 C 5.542969 -4.234375 5.726562 -4.667969 5.902344 -5.097656 C 5.945312 -5.207031 5.972656 -5.292969 5.976562 -5.355469 C 5.984375 -5.417969 5.988281 -5.460938 5.988281 -5.480469 C 5.988281 -5.558594 5.949219 -5.628906 5.875 -5.6875 C 5.796875 -5.746094 5.707031 -5.796875 5.605469 -5.839844 C 5.496094 -5.882812 5.390625 -5.914062 5.292969 -5.9375 C 5.191406 -5.960938 5.109375 -5.972656 5.046875 -5.984375 L 5.046875 -6.457031 L 7.734375 -6.457031 Z "/>
</g>
<g id="glyph-0-4">
<path d="M 4.09375 0.207031 C 3.492188 0.207031 2.957031 0.121094 2.496094 -0.0546875 C 2.035156 -0.230469 1.652344 -0.472656 1.355469 -0.773438 C 1.054688 -1.082031 0.832031 -1.449219 0.683594 -1.867188 C 0.535156 -2.289062 0.460938 -2.746094 0.460938 -3.242188 C 0.460938 -3.695312 0.550781 -4.125 0.730469 -4.53125 C 0.914062 -4.9375 1.15625 -5.296875 1.464844 -5.605469 C 1.78125 -5.921875 2.175781 -6.175781 2.644531 -6.363281 C 3.117188 -6.550781 3.636719 -6.648438 4.207031 -6.648438 C 5.003906 -6.648438 5.636719 -6.496094 6.101562 -6.195312 C 6.566406 -5.894531 6.796875 -5.484375 6.796875 -4.972656 C 6.796875 -4.660156 6.714844 -4.410156 6.550781 -4.21875 C 6.382812 -4.027344 6.101562 -3.933594 5.695312 -3.933594 C 5.371094 -3.933594 5.097656 -4.011719 4.878906 -4.167969 C 4.660156 -4.324219 4.550781 -4.527344 4.550781 -4.777344 C 4.550781 -4.992188 4.585938 -5.203125 4.65625 -5.410156 C 4.722656 -5.617188 4.765625 -5.777344 4.777344 -5.886719 C 4.730469 -5.964844 4.671875 -6.023438 4.597656 -6.0625 C 4.523438 -6.105469 4.40625 -6.125 4.25 -6.125 C 4.054688 -6.125 3.878906 -6.082031 3.71875 -5.988281 C 3.558594 -5.898438 3.40625 -5.738281 3.269531 -5.507812 C 3.132812 -5.289062 3.027344 -5 2.945312 -4.636719 C 2.867188 -4.269531 2.824219 -3.832031 2.824219 -3.320312 C 2.824219 -2.546875 3.007812 -1.925781 3.367188 -1.453125 C 3.730469 -0.980469 4.164062 -0.742188 4.667969 -0.742188 C 5.148438 -0.742188 5.53125 -0.847656 5.816406 -1.0625 C 6.101562 -1.277344 6.355469 -1.585938 6.574219 -1.980469 L 7.0625 -1.640625 C 6.929688 -1.375 6.769531 -1.132812 6.582031 -0.914062 C 6.394531 -0.695312 6.171875 -0.5 5.910156 -0.332031 C 5.636719 -0.152344 5.359375 -0.0195312 5.078125 0.0703125 C 4.796875 0.164062 4.46875 0.207031 4.09375 0.207031 Z "/>
</g>
<g id="glyph-0-5">
<path d="M 7.023438 -5.691406 C 7.347656 -5.390625 7.589844 -5.03125 7.761719 -4.617188 C 7.929688 -4.199219 8.015625 -3.746094 8.015625 -3.261719 C 8.015625 -2.78125 7.929688 -2.324219 7.761719 -1.898438 C 7.597656 -1.46875 7.351562 -1.105469 7.03125 -0.800781 C 6.6875 -0.476562 6.277344 -0.226562 5.804688 -0.0507812 C 5.328125 0.121094 4.785156 0.207031 4.171875 0.207031 C 3.644531 0.207031 3.15625 0.132812 2.710938 -0.0195312 C 2.265625 -0.171875 1.871094 -0.398438 1.53125 -0.703125 C 1.199219 -0.992188 0.941406 -1.351562 0.75 -1.78125 C 0.558594 -2.207031 0.460938 -2.6875 0.460938 -3.214844 C 0.460938 -3.738281 0.546875 -4.199219 0.710938 -4.605469 C 0.878906 -5.011719 1.128906 -5.375 1.464844 -5.691406 C 1.785156 -5.992188 2.183594 -6.230469 2.652344 -6.394531 C 3.125 -6.5625 3.648438 -6.648438 4.230469 -6.648438 C 4.839844 -6.648438 5.375 -6.5625 5.835938 -6.394531 C 6.296875 -6.230469 6.695312 -5.992188 7.023438 -5.691406 M 5.359375 -1.179688 C 5.453125 -1.421875 5.523438 -1.714844 5.570312 -2.0625 C 5.613281 -2.410156 5.636719 -2.816406 5.636719 -3.273438 C 5.636719 -3.578125 5.617188 -3.925781 5.574219 -4.316406 C 5.53125 -4.707031 5.464844 -5.015625 5.378906 -5.242188 C 5.273438 -5.515625 5.128906 -5.730469 4.945312 -5.886719 C 4.761719 -6.042969 4.527344 -6.121094 4.246094 -6.121094 C 3.9375 -6.121094 3.691406 -6.035156 3.503906 -5.867188 C 3.320312 -5.695312 3.179688 -5.476562 3.078125 -5.207031 C 2.988281 -4.960938 2.925781 -4.671875 2.890625 -4.339844 C 2.855469 -4.007812 2.839844 -3.660156 2.839844 -3.300781 C 2.839844 -2.828125 2.855469 -2.4375 2.882812 -2.125 C 2.914062 -1.816406 2.988281 -1.503906 3.105469 -1.191406 C 3.207031 -0.921875 3.347656 -0.710938 3.535156 -0.554688 C 3.722656 -0.398438 3.957031 -0.320312 4.246094 -0.320312 C 4.503906 -0.320312 4.730469 -0.390625 4.914062 -0.539062 C 5.101562 -0.683594 5.25 -0.894531 5.359375 -1.179688 Z "/>
</g>
<g id="glyph-0-6">
<path d="M 0.820312 -0.617188 C 1.246094 -1.195312 1.613281 -1.941406 1.925781 -2.855469 C 2.238281 -3.769531 2.394531 -4.507812 2.394531 -5.070312 C 2.394531 -5.28125 2.371094 -5.4375 2.316406 -5.539062 C 2.265625 -5.644531 2.179688 -5.726562 2.058594 -5.789062 C 1.976562 -5.832031 1.839844 -5.871094 1.652344 -5.90625 C 1.46875 -5.945312 1.316406 -5.96875 1.199219 -5.984375 L 1.199219 -6.457031 L 7.753906 -6.457031 L 7.753906 -5.984375 C 7.625 -5.972656 7.515625 -5.964844 7.429688 -5.949219 C 7.339844 -5.9375 7.246094 -5.914062 7.140625 -5.886719 C 7.015625 -5.847656 6.921875 -5.777344 6.863281 -5.671875 C 6.804688 -5.570312 6.777344 -5.4375 6.777344 -5.273438 L 6.777344 -1.230469 C 6.777344 -1 6.808594 -0.835938 6.875 -0.738281 C 6.941406 -0.640625 7.117188 -0.59375 7.402344 -0.59375 L 7.929688 -0.59375 L 7.929688 2.089844 L 7.511719 2.089844 C 7.453125 1.941406 7.378906 1.769531 7.292969 1.574219 C 7.203125 1.378906 7.066406 1.152344 6.882812 0.890625 C 6.714844 0.65625 6.53125 0.457031 6.332031 0.289062 C 6.128906 0.121094 5.894531 0.0273438 5.625 0 C 5.46875 -0.0117188 5.285156 -0.0195312 5.074219 -0.0234375 C 4.863281 -0.0234375 4.703125 -0.0273438 4.589844 -0.0273438 L 3.390625 -0.0273438 C 3.214844 -0.0273438 3.039062 -0.0234375 2.867188 -0.0234375 C 2.695312 -0.0195312 2.527344 -0.0117188 2.355469 0 C 2.105469 0.0234375 1.871094 0.121094 1.660156 0.292969 C 1.449219 0.464844 1.257812 0.667969 1.09375 0.890625 C 0.929688 1.121094 0.796875 1.351562 0.691406 1.574219 C 0.589844 1.800781 0.515625 1.972656 0.46875 2.089844 L 0.0507812 2.089844 L 0.0507812 -0.617188 L 0.820312 -0.617188 M 1.648438 -0.617188 L 4.089844 -0.617188 C 4.308594 -0.617188 4.457031 -0.652344 4.53125 -0.714844 C 4.605469 -0.78125 4.640625 -0.902344 4.640625 -1.082031 L 4.640625 -5.832031 L 3.164062 -5.832031 C 3.15625 -4.949219 3.023438 -4.03125 2.761719 -3.085938 C 2.503906 -2.140625 2.132812 -1.316406 1.648438 -0.617188 Z "/>
</g>
<g id="glyph-0-7">
<path d="M 7.820312 -0.136719 C 7.628906 -0.0546875 7.402344 0.0234375 7.144531 0.0898438 C 6.882812 0.160156 6.609375 0.195312 6.316406 0.195312 C 5.785156 0.195312 5.394531 0.117188 5.140625 -0.0429688 C 4.890625 -0.199219 4.71875 -0.425781 4.628906 -0.722656 L 4.589844 -0.722656 C 4.441406 -0.574219 4.300781 -0.449219 4.164062 -0.34375 C 4.027344 -0.242188 3.878906 -0.152344 3.722656 -0.078125 C 3.519531 0.015625 3.320312 0.0898438 3.132812 0.136719 C 2.945312 0.183594 2.679688 0.207031 2.339844 0.207031 C 1.835938 0.207031 1.40625 0.0585938 1.050781 -0.238281 C 0.691406 -0.535156 0.515625 -0.929688 0.515625 -1.421875 C 0.515625 -1.703125 0.554688 -1.945312 0.632812 -2.140625 C 0.710938 -2.339844 0.820312 -2.515625 0.964844 -2.667969 C 1.09375 -2.804688 1.246094 -2.921875 1.417969 -3.011719 C 1.589844 -3.105469 1.777344 -3.1875 1.980469 -3.265625 C 2.371094 -3.410156 2.84375 -3.558594 3.390625 -3.714844 C 3.9375 -3.867188 4.335938 -4.007812 4.589844 -4.128906 L 4.589844 -4.753906 C 4.589844 -4.859375 4.582031 -5.003906 4.5625 -5.183594 C 4.546875 -5.359375 4.507812 -5.511719 4.453125 -5.632812 C 4.390625 -5.769531 4.296875 -5.886719 4.167969 -5.984375 C 4.035156 -6.078125 3.863281 -6.125 3.652344 -6.125 C 3.460938 -6.125 3.300781 -6.097656 3.171875 -6.042969 C 3.046875 -5.992188 2.941406 -5.933594 2.863281 -5.878906 C 2.878906 -5.792969 2.914062 -5.660156 2.976562 -5.480469 C 3.035156 -5.304688 3.066406 -5.132812 3.066406 -4.96875 C 3.066406 -4.894531 3.046875 -4.800781 3.007812 -4.691406 C 2.96875 -4.578125 2.910156 -4.492188 2.835938 -4.425781 C 2.738281 -4.339844 2.625 -4.273438 2.5 -4.226562 C 2.378906 -4.175781 2.1875 -4.152344 1.929688 -4.152344 C 1.566406 -4.152344 1.289062 -4.242188 1.101562 -4.417969 C 0.914062 -4.59375 0.820312 -4.820312 0.820312 -5.105469 C 0.820312 -5.347656 0.917969 -5.566406 1.109375 -5.757812 C 1.304688 -5.953125 1.539062 -6.109375 1.816406 -6.238281 C 2.089844 -6.367188 2.40625 -6.46875 2.761719 -6.539062 C 3.117188 -6.609375 3.445312 -6.648438 3.75 -6.648438 C 4.171875 -6.648438 4.558594 -6.621094 4.910156 -6.570312 C 5.261719 -6.523438 5.578125 -6.417969 5.859375 -6.261719 C 6.128906 -6.109375 6.34375 -5.890625 6.5 -5.601562 C 6.660156 -5.3125 6.738281 -4.9375 6.738281 -4.472656 C 6.738281 -3.980469 6.726562 -3.402344 6.707031 -2.726562 C 6.6875 -2.054688 6.679688 -1.613281 6.679688 -1.398438 C 6.679688 -1.203125 6.707031 -1.050781 6.765625 -0.9375 C 6.824219 -0.824219 6.917969 -0.738281 7.039062 -0.683594 C 7.113281 -0.648438 7.226562 -0.628906 7.386719 -0.621094 C 7.542969 -0.617188 7.6875 -0.613281 7.820312 -0.613281 L 7.820312 -0.136719 M 4.589844 -3.527344 C 4.347656 -3.445312 4.105469 -3.351562 3.863281 -3.246094 C 3.625 -3.136719 3.429688 -3.027344 3.277344 -2.910156 C 3.117188 -2.785156 2.988281 -2.632812 2.898438 -2.441406 C 2.804688 -2.253906 2.761719 -2.03125 2.761719 -1.773438 C 2.761719 -1.433594 2.835938 -1.1875 2.992188 -1.035156 C 3.148438 -0.882812 3.335938 -0.808594 3.5625 -0.808594 C 3.804688 -0.808594 4 -0.855469 4.15625 -0.953125 C 4.308594 -1.050781 4.445312 -1.171875 4.5625 -1.316406 Z "/>
</g>
<g id="glyph-0-8">
<path d="M 8.351562 0 L 4.25 0 L 4.25 -0.476562 C 4.359375 -0.484375 4.46875 -0.496094 4.582031 -0.511719 C 4.695312 -0.527344 4.792969 -0.546875 4.871094 -0.574219 C 5.007812 -0.621094 5.105469 -0.695312 5.160156 -0.792969 C 5.214844 -0.894531 5.242188 -1.023438 5.242188 -1.183594 L 5.242188 -5.832031 L 3.78125 -5.832031 C 3.761719 -4.746094 3.664062 -3.820312 3.496094 -3.050781 C 3.328125 -2.28125 3.113281 -1.660156 2.859375 -1.1875 C 2.597656 -0.707031 2.316406 -0.355469 2.011719 -0.128906 C 1.707031 0.09375 1.402344 0.207031 1.09375 0.207031 C 0.859375 0.207031 0.664062 0.171875 0.503906 0.09375 C 0.347656 0.0195312 0.21875 -0.078125 0.125 -0.195312 C 0.0234375 -0.3125 -0.046875 -0.441406 -0.0859375 -0.585938 C -0.125 -0.730469 -0.144531 -0.855469 -0.144531 -0.96875 C -0.144531 -1.292969 -0.0507812 -1.546875 0.132812 -1.742188 C 0.316406 -1.933594 0.5625 -2.03125 0.867188 -2.03125 C 1.121094 -2.03125 1.34375 -1.960938 1.535156 -1.824219 C 1.726562 -1.6875 1.910156 -1.523438 2.082031 -1.328125 C 2.347656 -1.726562 2.570312 -2.265625 2.75 -2.941406 C 2.929688 -3.617188 3.019531 -4.320312 3.019531 -5.050781 C 3.019531 -5.246094 2.988281 -5.398438 2.921875 -5.507812 C 2.859375 -5.617188 2.769531 -5.703125 2.664062 -5.769531 C 2.542969 -5.835938 2.402344 -5.886719 2.246094 -5.921875 C 2.089844 -5.953125 1.953125 -5.972656 1.835938 -5.984375 L 1.835938 -6.457031 L 8.351562 -6.457031 L 8.351562 -5.984375 C 8.222656 -5.972656 8.113281 -5.964844 8.027344 -5.949219 C 7.941406 -5.9375 7.84375 -5.914062 7.742188 -5.886719 C 7.613281 -5.847656 7.523438 -5.777344 7.464844 -5.671875 C 7.40625 -5.570312 7.375 -5.4375 7.375 -5.273438 L 7.375 -1.183594 C 7.375 -1.027344 7.402344 -0.898438 7.457031 -0.789062 C 7.511719 -0.683594 7.605469 -0.613281 7.742188 -0.574219 C 7.84375 -0.542969 7.9375 -0.519531 8.015625 -0.507812 C 8.097656 -0.496094 8.210938 -0.484375 8.351562 -0.476562 Z "/>
</g>
<g id="glyph-0-9">
<path d="M 5.363281 -2.019531 C 5.363281 -2.382812 5.257812 -2.699219 5.042969 -2.960938 C 4.828125 -3.226562 4.523438 -3.359375 4.132812 -3.359375 C 3.980469 -3.359375 3.855469 -3.351562 3.753906 -3.339844 C 3.652344 -3.328125 3.570312 -3.316406 3.515625 -3.3125 L 3.515625 -1.027344 C 3.515625 -0.847656 3.570312 -0.703125 3.675781 -0.59375 C 3.78125 -0.488281 3.96875 -0.4375 4.238281 -0.4375 C 4.460938 -0.4375 4.644531 -0.484375 4.796875 -0.578125 C 4.945312 -0.667969 5.0625 -0.792969 5.144531 -0.949219 C 5.230469 -1.117188 5.289062 -1.285156 5.320312 -1.460938 C 5.347656 -1.636719 5.363281 -1.824219 5.363281 -2.019531 M 7.664062 -2.003906 C 7.664062 -1.640625 7.59375 -1.324219 7.449219 -1.058594 C 7.308594 -0.789062 7.09375 -0.574219 6.804688 -0.410156 C 6.53125 -0.257812 6.191406 -0.144531 5.785156 -0.0703125 C 5.378906 0.0078125 4.886719 0.046875 4.308594 0.046875 C 3.226562 0.046875 2.429688 0.0390625 1.921875 0.0234375 C 1.414062 0.0078125 0.90625 0 0.402344 0 L 0.402344 -0.476562 C 0.511719 -0.484375 0.621094 -0.496094 0.730469 -0.511719 C 0.84375 -0.527344 0.9375 -0.546875 1.015625 -0.574219 C 1.15625 -0.621094 1.25 -0.695312 1.300781 -0.792969 C 1.355469 -0.894531 1.378906 -1.023438 1.378906 -1.183594 L 1.378906 -5.273438 C 1.378906 -5.425781 1.351562 -5.554688 1.296875 -5.660156 C 1.246094 -5.765625 1.148438 -5.84375 1.015625 -5.886719 C 0.902344 -5.921875 0.796875 -5.941406 0.703125 -5.953125 C 0.609375 -5.964844 0.507812 -5.972656 0.402344 -5.984375 L 0.402344 -6.457031 L 4.492188 -6.457031 L 4.492188 -5.984375 C 4.363281 -5.972656 4.253906 -5.964844 4.164062 -5.949219 C 4.078125 -5.9375 3.980469 -5.914062 3.878906 -5.886719 C 3.742188 -5.847656 3.648438 -5.769531 3.597656 -5.652344 C 3.542969 -5.539062 3.515625 -5.414062 3.515625 -5.273438 L 3.515625 -3.894531 C 3.710938 -3.898438 3.871094 -3.90625 4 -3.914062 C 4.128906 -3.925781 4.324219 -3.933594 4.589844 -3.933594 C 5.035156 -3.933594 5.445312 -3.898438 5.816406 -3.832031 C 6.1875 -3.765625 6.511719 -3.65625 6.785156 -3.503906 C 7.0625 -3.351562 7.277344 -3.15625 7.429688 -2.917969 C 7.585938 -2.679688 7.664062 -2.375 7.664062 -2.003906 Z "/>
</g>
<g id="glyph-0-10">
<path d="M 7.375 -1.554688 C 7.222656 -1.308594 7.039062 -1.074219 6.824219 -0.855469 C 6.609375 -0.636719 6.367188 -0.449219 6.09375 -0.292969 C 5.804688 -0.128906 5.507812 -0.00390625 5.210938 0.0820312 C 4.914062 0.164062 4.574219 0.207031 4.1875 0.207031 C 3.542969 0.207031 2.988281 0.117188 2.523438 -0.0664062 C 2.054688 -0.246094 1.671875 -0.492188 1.367188 -0.800781 C 1.0625 -1.109375 0.835938 -1.472656 0.6875 -1.890625 C 0.539062 -2.308594 0.460938 -2.765625 0.460938 -3.253906 C 0.460938 -3.699219 0.542969 -4.121094 0.707031 -4.527344 C 0.867188 -4.933594 1.101562 -5.296875 1.398438 -5.613281 C 1.695312 -5.921875 2.066406 -6.167969 2.515625 -6.359375 C 2.964844 -6.550781 3.46875 -6.648438 4.023438 -6.648438 C 4.632812 -6.648438 5.128906 -6.574219 5.519531 -6.425781 C 5.910156 -6.277344 6.234375 -6.074219 6.492188 -5.8125 C 6.738281 -5.566406 6.917969 -5.273438 7.03125 -4.9375 C 7.144531 -4.601562 7.199219 -4.25 7.199219 -3.878906 L 7.199219 -3.457031 L 2.800781 -3.457031 C 2.800781 -2.566406 2.972656 -1.890625 3.3125 -1.425781 C 3.65625 -0.960938 4.203125 -0.730469 4.949219 -0.730469 C 5.355469 -0.730469 5.722656 -0.839844 6.046875 -1.0625 C 6.375 -1.289062 6.652344 -1.570312 6.882812 -1.914062 L 7.375 -1.554688 M 4.890625 -4.03125 C 4.890625 -4.289062 4.875 -4.558594 4.851562 -4.832031 C 4.824219 -5.105469 4.777344 -5.328125 4.714844 -5.5 C 4.640625 -5.707031 4.539062 -5.859375 4.410156 -5.964844 C 4.28125 -6.066406 4.121094 -6.121094 3.925781 -6.121094 C 3.589844 -6.121094 3.324219 -5.949219 3.125 -5.613281 C 2.925781 -5.273438 2.816406 -4.738281 2.800781 -4.003906 Z "/>
</g>
<g id="glyph-0-11">
</g>
<g id="glyph-0-12">
<path d="M 8.917969 0 L 4.992188 0 L 4.992188 -0.476562 C 5.070312 -0.488281 5.164062 -0.507812 5.277344 -0.53125 C 5.386719 -0.554688 5.476562 -0.585938 5.546875 -0.625 C 5.652344 -0.6875 5.71875 -0.761719 5.753906 -0.851562 C 5.789062 -0.945312 5.808594 -1.074219 5.808594 -1.242188 L 5.808594 -5.832031 L 3.515625 -5.832031 L 3.515625 -1.242188 C 3.515625 -1.082031 3.535156 -0.953125 3.570312 -0.855469 C 3.609375 -0.757812 3.675781 -0.679688 3.777344 -0.625 C 3.84375 -0.585938 3.929688 -0.554688 4.027344 -0.53125 C 4.125 -0.507812 4.226562 -0.488281 4.328125 -0.476562 L 4.328125 0 L 0.402344 0 L 0.402344 -0.476562 C 0.511719 -0.484375 0.621094 -0.496094 0.730469 -0.511719 C 0.84375 -0.527344 0.9375 -0.546875 1.015625 -0.574219 C 1.15625 -0.621094 1.25 -0.695312 1.300781 -0.792969 C 1.355469 -0.894531 1.378906 -1.023438 1.378906 -1.183594 L 1.378906 -5.273438 C 1.378906 -5.425781 1.351562 -5.554688 1.296875 -5.660156 C 1.246094 -5.765625 1.148438 -5.84375 1.015625 -5.886719 C 0.902344 -5.921875 0.796875 -5.941406 0.703125 -5.953125 C 0.609375 -5.964844 0.507812 -5.972656 0.402344 -5.984375 L 0.402344 -6.457031 L 8.917969 -6.457031 L 8.917969 -5.984375 C 8.789062 -5.972656 8.679688 -5.964844 8.59375 -5.949219 C 8.507812 -5.9375 8.410156 -5.914062 8.308594 -5.886719 C 8.179688 -5.847656 8.089844 -5.777344 8.03125 -5.671875 C 7.972656 -5.570312 7.941406 -5.4375 7.941406 -5.273438 L 7.941406 -1.183594 C 7.941406 -1.027344 7.96875 -0.898438 8.023438 -0.789062 C 8.078125 -0.683594 8.171875 -0.613281 8.308594 -0.574219 C 8.410156 -0.542969 8.503906 -0.519531 8.585938 -0.507812 C 8.664062 -0.496094 8.777344 -0.484375 8.917969 -0.476562 Z "/>
</g>
</g>
</defs>
<g fill="rgb(98.823529%, 38.431373%, 33.333333%)" fill-opacity="1">
<use xlink:href="#glyph-0-0" x="30" y="32.226562"/>
<use xlink:href="#glyph-0-1" x="40" y="32.226562"/>
<use xlink:href="#glyph-0-2" x="50" y="32.226562"/>
<use xlink:href="#glyph-0-3" x="59" y="32.226562"/>
<use xlink:href="#glyph-0-4" x="66" y="32.226562"/>
<use xlink:href="#glyph-0-5" x="73" y="32.226562"/>
<use xlink:href="#glyph-0-1" x="81" y="32.226562"/>
<use xlink:href="#glyph-0-6" x="91" y="32.226562"/>
<use xlink:href="#glyph-0-7" x="99" y="32.226562"/>
<use xlink:href="#glyph-0-8" x="107" y="32.226562"/>
<use xlink:href="#glyph-0-9" x="116" y="32.226562"/>
<use xlink:href="#glyph-0-2" x="124" y="32.226562"/>
<use xlink:href="#glyph-0-5" x="133" y="32.226562"/>
<use xlink:href="#glyph-0-10" x="141" y="32.226562"/>
<use xlink:href="#glyph-0-11" x="149" y="32.226562"/>
<use xlink:href="#glyph-0-12" x="152" y="32.226562"/>
<use xlink:href="#glyph-0-5" x="161" y="32.226562"/>
<use xlink:href="#glyph-0-8" x="169" y="32.226562"/>
<use xlink:href="#glyph-0-10" x="178" y="32.226562"/>
</g>
</svg>
